<?xml version="1.0" encoding="utf-8"?>
<!-- Generator: Adobe Illustrator 22.1.0, SVG Export Plug-In . SVG Version: 6.00 Build 0)  -->
<svg version="1.1" xmlns="http://www.w3.org/2000/svg" xmlns:xlink="http://www.w3.org/1999/xlink" x="0px" y="0px"
	 viewBox="0 0 566.9 566.9" style="enable-background:new 0 0 566.9 566.9;" xml:space="preserve">
<style type="text/css">
	.st0{fill:#E778AF;}
	.st1{fill:#BB8A52;}
	.st2{fill:#E9BFB2;}
	.st3{filter:url(#Adobe_OpacityMaskFilter);}
	.st4{fill:#FFFFFF;}
	.st5{mask:url(#SVGID_1_);}
	.st6{filter:url(#Adobe_OpacityMaskFilter_1_);}
	.st7{mask:url(#SVGID_2_);}
	.st8{fill:#DCDBDB;}
	.st9{filter:url(#Adobe_OpacityMaskFilter_2_);}
	.st10{mask:url(#SVGID_3_);fill:none;stroke:#303030;stroke-miterlimit:10;}
	.st11{fill:none;stroke:#DCDBDB;stroke-miterlimit:10;}
	.st12{fill:#303030;}
	.st13{filter:url(#Adobe_OpacityMaskFilter_3_);}
	.st14{mask:url(#SVGID_4_);fill:#232323;}
	.st15{fill:#2B1D16;}
	.st16{fill:#342213;}
</style>
<g id="Layer_1">
	<circle class="st0" cx="294.1" cy="289.9" r="203.3"/>
</g>
<g id="Layer_2">
	<g>
		<g>
			<path class="st1" d="M-982.3-1002.8c1.3,0,1.3-2,0-2C-983.6-1004.8-983.6-1002.8-982.3-1002.8L-982.3-1002.8z"/>
		</g>
	</g>
	<circle class="st2" cx="295.1" cy="230.8" r="89.7"/>
	<g>
		<path class="st2" d="M210.9,230.7c0,7.6-4.9,13.8-11,13.8c-6.1,0-11-6.2-11-13.8c0-7.6,4.9-13.8,11-13.8
			C205.9,216.8,210.9,223,210.9,230.7"/>
	</g>
	<g>
		<path class="st2" d="M401.2,230.7c0,7.6-4.9,13.8-11,13.8c-6.1,0-11-6.2-11-13.8c0-7.6,4.9-13.8,11-13.8
			C396.3,216.8,401.2,223,401.2,230.7"/>
	</g>
	<polygon class="st2" points="275.1,315.6 275.1,350.4 323.6,352 323.1,307.5 	"/>
	<path class="st2" d="M277.1,343.4c0,0-41.5-0.8-72.3,8.7c-30.8,9.5,54.8,55.7,54.8,55.7l83,0.1c0,0,56.4-31.6,55.6-50.3
		c-0.3-7-38-16.7-98.1-15.1C240.1,344.2,277.1,343.4,277.1,343.4z"/>
	<defs>
		<filter id="Adobe_OpacityMaskFilter" filterUnits="userSpaceOnUse" x="369.9" y="403.5" width="57" height="85">
			<feColorMatrix  type="matrix" values="1 0 0 0 0  0 1 0 0 0  0 0 1 0 0  0 0 0 1 0"/>
		</filter>
	</defs>
	<mask maskUnits="userSpaceOnUse" x="369.9" y="403.5" width="57" height="85" id="SVGID_1_">
		<g class="st3">
			<circle class="st4" cx="294.1" cy="289.9" r="203.3"/>
		</g>
	</mask>
	<g class="st5">
		<path class="st2" d="M422,403.5c0,0,12.3,43.2-2.2,81.2l-45.3,3.8c0,0-7.7-27.2-3.2-76.8"/>
	</g>
	<defs>
		<filter id="Adobe_OpacityMaskFilter_1_" filterUnits="userSpaceOnUse" x="162.9" y="403.9" width="57" height="85">
			<feColorMatrix  type="matrix" values="1 0 0 0 0  0 1 0 0 0  0 0 1 0 0  0 0 0 1 0"/>
		</filter>
	</defs>
	<mask maskUnits="userSpaceOnUse" x="162.9" y="403.9" width="57" height="85" id="SVGID_2_">
		<g class="st6">
			<circle class="st4" cx="294.1" cy="289.9" r="203.3"/>
		</g>
	</mask>
	<g class="st7">
		<path class="st2" d="M167.8,403.9c0,0-12.3,43.2,2.2,81.2l45.3,3.8c0,0,7.7-27.2,3.2-76.8"/>
	</g>
	<path class="st2" d="M524.1,532"/>
	<path class="st2" d="M214.6,459.5"/>
	<path class="st4" d="M290.1,277.9c0,0,14.5,14.2,32-2.4L290.1,277.9z"/>
</g>
<g id="Layer_7">
	<circle class="st8" cx="387.1" cy="241.5" r="1.5"/>
	<circle class="st8" cx="202.4" cy="241.5" r="1.5"/>
</g>
<g id="Layer_5">
	<defs>
		<filter id="Adobe_OpacityMaskFilter_2_" filterUnits="userSpaceOnUse" x="270.6" y="341.5" width="56.5" height="30">
			<feColorMatrix  type="matrix" values="1 0 0 0 0  0 1 0 0 0  0 0 1 0 0  0 0 0 1 0"/>
		</filter>
	</defs>
	<mask maskUnits="userSpaceOnUse" x="270.6" y="341.5" width="56.5" height="30" id="SVGID_3_">
		<g class="st9">
			<path class="st4" d="M277.1,343.4c0,0-41.5-0.8-72.3,8.7c-30.8,9.5,54.8,55.7,54.8,55.7l83,0.1c0,0,56.4-31.6,55.6-50.3
				c-0.3-7-38-16.7-98.1-15.1C240.1,344.2,277.1,343.4,277.1,343.4z"/>
		</g>
	</mask>
	<path class="st10" d="M271.1,341.8c0,0,19.5,29.4,29.7,29.3c12.4-0.2,26-29.3,26-29.3"/>
	<circle class="st11" cx="300.6" cy="375.2" r="4.1"/>
	<circle class="st11" cx="300.3" cy="374.2" r="2.9"/>
	<polygon class="st12" points="304.7,374.8 304.8,375 305.1,375.1 304.9,375.3 304.9,375.6 304.7,375.4 304.4,375.6 304.4,375.3 
		304.2,375.1 304.5,375 	"/>
	<polygon class="st12" points="296.5,375.2 296.7,375.5 296.9,375.5 296.7,375.7 296.8,376 296.5,375.9 296.3,376 296.3,375.7 
		296.1,375.5 296.4,375.5 	"/>
</g>
<g id="Layer_4">
	<defs>
		<filter id="Adobe_OpacityMaskFilter_3_" filterUnits="userSpaceOnUse" x="163.5" y="342.5" width="262.2" height="161.7">
			<feColorMatrix  type="matrix" values="1 0 0 0 0  0 1 0 0 0  0 0 1 0 0  0 0 0 1 0"/>
		</filter>
	</defs>
	<mask maskUnits="userSpaceOnUse" x="163.5" y="342.5" width="262.2" height="161.7" id="SVGID_4_">
		<g class="st13">
			<circle class="st4" cx="294.1" cy="289.9" r="203.3"/>
		</g>
	</mask>
	<path class="st14" d="M218.8,413.9l8.3,90.3l138-1.7l6-89.7l-1,10.3l55.5-3.2c0,0-0.8-40-7.8-48c-9.4-10.7-18.7-19.5-26.7-23.5
		c-4-2-59-6-59-6s-17.6,44-31.1,44.4c-13.9,0.4-34.4-43.9-34.4-43.9s-60.5,4.8-64.8,6.5c-4.7,1.8-22.6,13.9-29.3,26.3
		c-4.1,7.7-9,40.3-9,40.3l56.8,8.7L218.8,413.9z"/>
</g>
<g id="Layer_3">
	<path class="st15" d="M207.1,239.5c0,0,6.6-30.2,10-39.3c2.2-5.9,11.3-21,11.3-21s22,14.7,80.3,17.7s52.5-3.1,55.7,10.7
		c0.8,3.4,8,7.1,10,10c4.2,6,9.7,25,9.7,25s15-55.7-17-79c0,0,1.3,0-1.3,6.7c0,0-11-31.7-37.7-33c0,0,2.3,2.7,1.7,7.7
		c0,0-3-15.7-36-17.3c-24.7-1.2-52.7-27.7-52.7-27.7s-29.6,33.9-23.7,50c3.3,9-6.7,16-9,9c0,0-11.3,21.4-3,47.7
		C207.8,213.9,207.1,239.5,207.1,239.5z"/>
</g>
<g id="Layer_6">
	<g>
		<path class="st4" d="M358.6,237.4c0,11.1-9,20-20,20c-11.1,0-20-9-20-20c0-11.1,9-20,20-20C349.6,217.3,358.6,226.3,358.6,237.4"
			/>
	</g>
	<g>
		<path class="st4" d="M278.1,237.4c0,11.1-9,20-20,20c-11.1,0-20-9-20-20c0-11.1,9-20,20-20C269.2,217.3,278.1,226.3,278.1,237.4"
			/>
	</g>
	<g>
		<path class="st16" d="M256.9,233.6c0,4.4-3.6,8-8,8c-4.4,0-8-3.6-8-8c0-4.4,3.6-8,8-8C253.3,225.6,256.9,229.2,256.9,233.6"/>
	</g>
	<g>
		<path class="st16" d="M335.8,235.2c0,4.4-3.6,8-8,8c-4.4,0-8-3.6-8-8c0-4.4,3.6-8,8-8C332.2,227.2,335.8,230.8,335.8,235.2"/>
	</g>
	<g>
		<path class="st15" d="M320.1,213.9c3.5-1.5,7-2.7,10.7-3.8c1.8-0.6,3.6-1,5.5-1.4c1.9-0.3,3.8-0.5,5.7-0.6c1.9,0,3.9-0.1,5.9,0.4
			c1.1,0.3,2,0.9,2.8,1.4c0.8,0.5,1.6,1.2,2.3,1.8c2.9,2.5,5.5,5.3,7.8,8.3c-2.9-2.4-5.8-4.8-8.8-7c-0.7-0.5-1.5-1.1-2.3-1.5
			c-0.8-0.5-1.5-0.9-2.3-1c-1.6-0.4-3.5-0.3-5.3-0.3c-1.8,0.1-3.7,0.2-5.5,0.5c-1.8,0.3-3.6,0.7-5.4,1.1
			C327.5,212.4,323.9,213.2,320.1,213.9z"/>
	</g>
	<g>
		<path class="st15" d="M277.6,214.6c-3.6-1-7.2-2.2-10.8-3.3c-1.8-0.5-3.6-1.2-5.3-1.6c-1.8-0.4-3.6-0.8-5.4-1
			c-1.8-0.3-3.7-0.4-5.3-0.2c-0.8,0.1-1.6,0.4-2.4,0.8c-0.8,0.4-1.6,0.8-2.4,1.3c-3.2,1.9-6.2,4.1-9.4,6.2c2.6-2.8,5.4-5.3,8.5-7.5
			c0.8-0.6,1.6-1.1,2.4-1.6c0.9-0.5,1.8-0.9,2.9-1.1c2.1-0.3,4-0.1,5.9,0.1c1.9,0.3,3.8,0.6,5.6,1.1c1.9,0.6,3.6,1.2,5.4,1.9
			C270.8,211.2,274.3,212.8,277.6,214.6z"/>
	</g>
</g>
</svg>
