<?xml version="1.0" encoding="utf-8"?>
<!-- Generator: Adobe Illustrator 16.0.0, SVG Export Plug-In . SVG Version: 6.00 Build 0)  -->
<!DOCTYPE svg PUBLIC "-//W3C//DTD SVG 1.1//EN" "http://www.w3.org/Graphics/SVG/1.1/DTD/svg11.dtd">
<svg version="1.1" id="_x35__copy_1_" xmlns="http://www.w3.org/2000/svg" xmlns:xlink="http://www.w3.org/1999/xlink" x="0px"
	 y="0px" width="1112.721px" height="552.826px" viewBox="0 0 1112.721 552.826" enable-background="new 0 0 1112.721 552.826"
	 xml:space="preserve">
<g id="Group_1_copy_4_" display="none">
	<g id="SUPPORTING_YOUNG_PEOPLE_THROUGH_TRANSITION_3_" display="inline">
	</g>
	<g id="MELV_LLE_S" display="inline">
	</g>
	<g id="BRIDGE" display="inline">
	</g>
	<g id="_x2018_" display="inline">
	</g>
</g>
<g id="Layer_3_xA0_Image_1_">
	<g id="SUPPORTING_YOUNG_PEOPLE_THROUGH_TRANSITION_2_">
		<path fill="#FFFFFF" d="M14.321,536.286c3.142,1.396,4.713,3.754,4.713,7.025c0,2.882-0.873,5.193-2.706,7.026
			c-1.92,1.92-4.539,2.837-7.768,2.837c-1.353,0-2.793-0.132-4.277-0.394c-1.484-0.263-2.618-0.567-3.491-0.829l-1.266-0.438v-7.854
			h2.139c0.523,0,0.785,0.218,0.873,0.741c0.043,0.175,0.131,0.917,0.218,2.139s0.131,1.92,0.131,1.92
			c2.182,0.786,3.928,1.222,5.324,1.222s2.444-0.174,3.229-0.436s1.483-0.655,2.007-1.179c1.134-1.048,1.658-2.4,1.658-4.146
			c0-1.658-0.786-2.968-2.356-3.841c-0.698-0.438-1.484-0.785-2.357-1.047c-2.793-0.873-4.625-1.44-5.499-1.833
			c-0.873-0.394-1.702-0.96-2.4-1.571c-1.571-1.396-2.313-3.359-2.313-5.848c0-2.356,0.829-4.276,2.487-5.936
			c1.79-1.746,4.102-2.619,6.982-2.619s5.804,0.523,8.772,1.746v7.2h-2.095c-0.524,0-0.83-0.218-0.917-0.741
			c0-0.088-0.131-1.354-0.306-3.885c-1.92-0.523-3.666-0.829-5.149-0.829c-1.833,0-3.317,0.438-4.364,1.396
			c-0.96,0.873-1.484,2.095-1.484,3.491c0,1.526,0.786,2.75,2.357,3.621c0.698,0.438,1.527,0.786,2.444,1.092
			c2.618,0.873,4.451,1.527,5.499,1.964h-0.085V536.286z"/>
		<path fill="#FFFFFF" d="M52.024,521.58v1.876c0,0.437-0.262,0.742-0.698,0.829l-2.488,0.479v15.842
			c0,3.665-1.135,6.634-3.316,8.989c-2.27,2.4-5.324,3.622-9.121,3.622c-3.753,0-6.808-1.222-9.077-3.622
			c-2.226-2.355-3.36-5.323-3.36-8.989v-15.842c-1.396-0.262-2.226-0.437-2.487-0.522c-0.437-0.088-0.655-0.394-0.655-0.829v-1.833
			h10.954v1.833c0,0.437-0.262,0.741-0.698,0.829c-0.218,0.043-1.135,0.218-2.88,0.479v15.798c0,2.662,0.698,4.845,2.182,6.459
			c1.483,1.658,3.535,2.487,6.066,2.487c2.531,0,4.582-0.829,6.066-2.487c1.44-1.614,2.182-3.753,2.182-6.415v-15.842
			c-1.702-0.262-2.662-0.437-2.88-0.479c-0.437-0.088-0.698-0.394-0.698-0.829v-1.833h3.578h4.189H52.024L52.024,521.58z"/>
		<path fill="#FFFFFF" d="M71.179,522.19c4.32,1.396,6.459,4.451,6.459,9.076c0,2.969-0.96,5.324-2.968,7.07
			c-2.095,1.833-4.975,2.793-8.641,2.793h-4.451v8.51c0.262,0.088,1.135,0.263,2.531,0.523c0.436,0.087,0.611,0.393,0.611,0.829
			v1.833H54.247v-1.833c0-0.438,0.218-0.742,0.654-0.829l2.488-0.48v-24.918c-1.396-0.262-2.226-0.437-2.488-0.522
			c-0.436-0.088-0.654-0.394-0.654-0.829v-1.833H66.03c2.007,0,3.666,0.218,5.149,0.654V522.19z M73.404,531.181
			c0-2.008-0.611-3.49-1.833-4.626c-1.222-1.135-3.055-1.657-5.542-1.657h-4.451v12.83h4.451c2.356,0,4.146-0.567,5.455-1.745
			c1.309-1.18,1.964-2.75,1.964-4.758L73.404,531.181z"/>
		<path fill="#FFFFFF" d="M96.967,522.19c4.32,1.396,6.459,4.451,6.459,9.076c0,2.969-0.96,5.324-2.968,7.07
			c-2.095,1.833-4.975,2.793-8.641,2.793h-4.451v8.51c0.262,0.088,1.135,0.263,2.531,0.523c0.436,0.087,0.611,0.393,0.611,0.829
			v1.833H80.035v-1.833c0-0.438,0.218-0.742,0.654-0.829l2.488-0.48v-24.918c-1.396-0.262-2.226-0.437-2.488-0.522
			c-0.436-0.088-0.654-0.394-0.654-0.829v-1.833h11.783c2.007,0,3.666,0.218,5.149,0.654V522.19z M99.192,531.181
			c0-2.008-0.611-3.49-1.833-4.626c-1.222-1.135-3.055-1.657-5.542-1.657h-4.451v12.83h4.451c2.356,0,4.146-0.567,5.455-1.745
			c1.309-1.18,1.964-2.75,1.964-4.758L99.192,531.181z"/>
		<path fill="#FFFFFF" d="M136.109,537.29c0,2.355-0.349,4.451-1.091,6.415c-0.742,1.964-1.79,3.666-3.142,5.063
			c-1.353,1.396-2.924,2.487-4.844,3.273c-1.92,0.785-4.015,1.222-6.284,1.222s-4.364-0.437-6.284-1.222
			c-1.92-0.786-3.535-1.877-4.888-3.273c-1.353-1.396-2.4-3.099-3.142-5.063c-0.742-1.964-1.135-4.103-1.135-6.458
			c0-2.357,0.393-4.495,1.135-6.459c0.742-1.964,1.789-3.666,3.142-5.063c1.353-1.396,2.967-2.53,4.888-3.315
			c1.92-0.786,4.015-1.18,6.284-1.18s4.364,0.394,6.284,1.18c1.92,0.785,3.535,1.876,4.888,3.271c1.353,1.396,2.4,3.1,3.142,5.063
			s1.091,4.103,1.091,6.459L136.109,537.29z M131.745,537.29c0-1.92-0.262-3.665-0.786-5.193c-0.524-1.526-1.222-2.836-2.182-3.884
			c-0.96-1.047-2.095-1.833-3.491-2.399s-2.968-0.829-4.626-0.829c-1.658,0-3.142,0.263-4.539,0.829
			c-1.396,0.566-2.531,1.354-3.491,2.399c-0.96,1.048-1.746,2.356-2.269,3.884c-0.524,1.528-0.786,3.273-0.786,5.193
			c0,1.921,0.262,3.622,0.786,5.148c0.523,1.527,1.309,2.794,2.269,3.842c0.96,1.047,2.095,1.876,3.491,2.442
			c1.396,0.567,2.924,0.873,4.583,0.873c1.658,0,3.186-0.306,4.582-0.873c1.396-0.566,2.531-1.396,3.491-2.442
			c0.96-1.048,1.702-2.313,2.226-3.842c0.524-1.526,0.786-3.229,0.786-5.148H131.745z"/>
		<path fill="#FFFFFF" d="M164.603,550.12c0.393,0.088,0.655,0.394,0.655,0.786v1.92h-0.786h-2.356h-1.396
			c-0.786,0-1.31-0.307-1.658-0.916l-8.117-11.172c-0.262-0.351-0.524-0.567-0.786-0.742c-0.262-0.175-0.698-0.262-1.309-0.262
			h-2.793v9.861c0,0,2.095,0.438,2.444,0.523c0.393,0.088,0.698,0.394,0.698,0.786v1.876h-3.142h-4.233h-3.142v-1.876
			c0-0.394,0.262-0.698,0.655-0.786c0.393-0.087,2.531-0.523,2.531-0.523v-24.875c0,0-2.139-0.437-2.531-0.522
			s-0.655-0.394-0.655-0.785v-1.921h3.142h8.423c2.007,0,3.709,0.219,5.149,0.61c1.44,0.393,2.618,0.961,3.579,1.746
			c0.96,0.785,1.658,1.701,2.095,2.749c0.436,1.047,0.654,2.313,0.654,3.622c0,1.135-0.174,2.096-0.523,3.056
			c-0.349,0.96-0.873,1.833-1.527,2.617c-0.655,0.786-1.44,1.44-2.4,1.964c-0.96,0.524-2.007,1.005-3.229,1.267
			c0.524,0.306,0.96,0.698,1.396,1.31l6.764,9.251c0.262,0.044,2.095,0.351,2.444,0.438L164.603,550.12L164.603,550.12z
			 M149.983,536.68c1.222,0,2.313-0.131,3.273-0.437c0.96-0.307,1.746-0.786,2.356-1.311c0.61-0.523,1.091-1.135,1.44-1.92
			c0.349-0.785,0.48-1.614,0.48-2.53c0-1.833-0.611-3.229-1.833-4.189c-1.222-0.96-3.011-1.396-5.455-1.396h-4.233v11.782h4.015
			H149.983z"/>
		<path fill="#FFFFFF" d="M192.006,521.58v6.895h-2.138c-0.523,0-0.742-0.131-0.829-0.436c-0.087-0.306-0.262-1.223-0.437-2.881
			h-7.332v24.524c0,0,0.175,0,0.524,0.089c1.134,0.218,1.876,0.349,2.182,0.437c0.305,0.087,0.436,0.35,0.436,0.785v1.833h-10.561
			v-1.833c0-0.438,0.262-0.785,0.742-0.873c0.48-0.087,1.266-0.262,2.4-0.479v-24.526h-7.375c-0.174,1.659-0.305,2.619-0.393,2.925
			c-0.087,0.305-0.349,0.436-0.873,0.436h-2.095v-6.895h23.566h1.483L192.006,521.58L192.006,521.58z"/>
		<path fill="#FFFFFF" d="M201.561,524.722v24.919c1.396,0.263,2.313,0.438,2.662,0.523c0.349,0.086,0.523,0.35,0.523,0.785v1.877
			h-10.517v-1.877c0-0.437,0.174-0.741,0.611-0.829l2.531-0.479v-24.919c-1.396-0.262-2.27-0.437-2.619-0.522
			s-0.523-0.35-0.523-0.785v-1.833h10.517v1.833c0,0.437-0.218,0.741-0.654,0.829L201.561,524.722z"/>
		<path fill="#FFFFFF" d="M232.412,545.931c-0.087-0.609-0.087-1.396-0.087-2.182V524.81c-1.702-0.263-2.619-0.479-2.88-0.523
			c-0.437-0.087-0.698-0.35-0.698-0.785v-1.92h3.579h3.709h3.186v1.92c0,0.438-0.262,0.698-0.698,0.785l-2.487,0.523v28.062h-2.139
			c-0.611,0-1.047-0.219-1.484-0.742l-18.11-23.565c0.087,0.741,0.087,1.396,0.087,2.008v19.113c1.746,0.264,2.706,0.48,2.924,0.524
			c0.436,0.087,0.611,0.349,0.611,0.785v1.877h-10.386v-1.877c0-0.438,0.218-0.698,0.654-0.785l2.488-0.524V524.81
			c-1.396-0.263-2.226-0.437-2.488-0.523c-0.436-0.087-0.654-0.394-0.654-0.829v-1.876h5.324c0.35,0,0.655,0.043,0.83,0.131
			c0.174,0.087,0.393,0.307,0.654,0.567l18.067,23.564v0.087H232.412z"/>
		<path fill="#FFFFFF" d="M264.396,547.938v-6.896h-4.844c-0.262,0-0.524-0.087-0.698-0.262c-0.175-0.174-0.262-0.307-0.262-0.567
			v-2.399h9.601v12.002c-3.142,2.269-7.07,3.359-11.87,3.359c-4.539,0-8.248-1.439-11.128-4.408c-2.88-2.968-4.32-6.852-4.32-11.563
			c0-4.802,1.396-8.642,4.277-11.521c2.924-2.967,6.808-4.451,11.695-4.451c3.404,0,7.07,0.786,11.041,2.271v7.244h-2.095
			c-0.523,0-0.829-0.175-0.916-0.698c0-0.218-0.175-1.527-0.35-3.971c-0.698-0.22-1.178-0.395-1.614-0.48
			c-1.659-0.437-3.535-0.698-5.63-0.698c-2.095,0-3.928,0.307-5.324,0.873c-1.396,0.567-2.618,1.396-3.622,2.443
			c-2.095,2.227-3.098,5.237-3.098,8.99c0,3.928,1.047,6.981,3.186,9.252c2.095,2.182,4.844,3.315,8.248,3.315
			C259.553,549.771,262.084,549.16,264.396,547.938z"/>
		<path fill="#FFFFFF" d="M308.905,521.58v1.92c0,0.437-0.175,0.698-0.524,0.785c-0.349,0.088-1.134,0.262-2.269,0.523
			l-9.557,15.623v9.251c0.174,0.044,1.003,0.264,2.487,0.524c0.437,0.087,0.655,0.349,0.655,0.785v1.877h-3.142h-4.233h-3.142
			v-1.877c0-0.438,0.262-0.698,0.698-0.785l2.444-0.524v-9.251l-9.513-15.623c-1.048-0.263-1.746-0.437-2.182-0.523
			c-0.437-0.087-0.611-0.394-0.611-0.829v-1.876h10.474v1.876c0,0.437-0.218,0.742-0.655,0.829
			c-1.484,0.306-2.313,0.479-2.488,0.479l5.848,9.95c0.436,0.785,0.917,1.702,1.266,2.749c0.393-1.135,0.829-2.051,1.265-2.793
			l5.848-9.95c-0.175,0-1.047-0.175-2.531-0.479c-0.438-0.088-0.611-0.394-0.611-0.829v-1.833H308.905L308.905,521.58z"/>
		<path fill="#FFFFFF" d="M341.501,537.29c0,2.355-0.349,4.451-1.091,6.415s-1.79,3.666-3.143,5.063s-2.924,2.487-4.844,3.273
			c-1.92,0.785-4.015,1.222-6.284,1.222c-2.269,0-4.363-0.437-6.283-1.222c-1.921-0.786-3.535-1.877-4.889-3.273
			c-1.353-1.396-2.399-3.099-3.142-5.063s-1.135-4.103-1.135-6.458c0-2.357,0.393-4.495,1.135-6.459s1.789-3.666,3.142-5.063
			c1.354-1.396,2.968-2.53,4.889-3.315c1.92-0.786,4.015-1.18,6.283-1.18c2.27,0,4.364,0.394,6.284,1.18
			c1.92,0.785,3.535,1.876,4.889,3.271c1.353,1.396,2.399,3.1,3.142,5.063s1.091,4.103,1.091,6.459L341.501,537.29z M337.137,537.29
			c0-1.92-0.262-3.665-0.785-5.193c-0.523-1.526-1.222-2.836-2.182-3.884c-0.96-1.047-2.095-1.833-3.491-2.399
			c-1.396-0.566-2.967-0.829-4.626-0.829c-1.658,0-3.142,0.263-4.539,0.829c-1.396,0.566-2.53,1.354-3.49,2.399
			c-0.961,1.048-1.746,2.356-2.27,3.884c-0.523,1.528-0.786,3.273-0.786,5.193c0,1.921,0.262,3.622,0.786,5.148
			c0.523,1.527,1.309,2.794,2.27,3.842c0.96,1.047,2.095,1.876,3.49,2.442c1.396,0.567,2.924,0.873,4.583,0.873
			c1.658,0,3.187-0.306,4.582-0.873c1.396-0.566,2.531-1.396,3.491-2.442c0.96-1.048,1.702-2.313,2.227-3.842
			c0.523-1.526,0.785-3.229,0.785-5.148H337.137z"/>
		<path fill="#FFFFFF" d="M374.577,521.58v1.876c0,0.437-0.262,0.742-0.698,0.829l-2.488,0.479v15.842
			c0,3.665-1.135,6.634-3.315,8.989c-2.271,2.4-5.324,3.622-9.121,3.622c-3.753,0-6.809-1.222-9.077-3.622
			c-2.226-2.355-3.36-5.323-3.36-8.989v-15.842c-1.396-0.262-2.226-0.437-2.486-0.522c-0.438-0.088-0.655-0.394-0.655-0.829v-1.833
			h10.954v1.833c0,0.437-0.262,0.741-0.698,0.829c-0.218,0.043-1.135,0.218-2.88,0.479v15.798c0,2.662,0.698,4.845,2.182,6.459
			c1.483,1.658,3.535,2.487,6.066,2.487s4.582-0.829,6.066-2.487c1.439-1.614,2.182-3.753,2.182-6.415v-15.842
			c-1.702-0.262-2.662-0.437-2.88-0.479c-0.438-0.088-0.698-0.394-0.698-0.829v-1.833h3.578h4.188H374.577L374.577,521.58z"/>
		<path fill="#FFFFFF" d="M401.674,545.931c-0.087-0.609-0.087-1.396-0.087-2.182V524.81c-1.702-0.263-2.619-0.479-2.88-0.523
			c-0.438-0.087-0.698-0.35-0.698-0.785v-1.92h3.579h3.709h3.187v1.92c0,0.438-0.263,0.698-0.698,0.785l-2.487,0.523v28.062h-2.139
			c-0.611,0-1.047-0.219-1.483-0.742l-18.11-23.565c0.087,0.741,0.087,1.396,0.087,2.008v19.113c1.746,0.264,2.706,0.48,2.924,0.524
			c0.437,0.087,0.611,0.349,0.611,0.785v1.877h-10.387v-1.877c0-0.438,0.219-0.698,0.654-0.785l2.488-0.524V524.81
			c-1.396-0.263-2.227-0.437-2.488-0.523c-0.436-0.087-0.654-0.394-0.654-0.829v-1.876h5.324c0.349,0,0.654,0.043,0.829,0.131
			c0.174,0.087,0.393,0.307,0.654,0.567l18.066,23.564L401.674,545.931L401.674,545.931z"/>
		<path fill="#FFFFFF" d="M433.658,547.938v-6.896h-4.844c-0.263,0-0.524-0.087-0.698-0.262c-0.175-0.174-0.263-0.307-0.263-0.567
			v-2.399h9.602v12.002c-3.142,2.269-7.07,3.359-11.87,3.359c-4.539,0-8.248-1.439-11.128-4.408c-2.88-2.968-4.32-6.852-4.32-11.563
			c0-4.802,1.396-8.642,4.277-11.521c2.924-2.967,6.808-4.451,11.696-4.451c3.403,0,7.068,0.786,11.041,2.271v7.244h-2.096
			c-0.522,0-0.829-0.175-0.917-0.698c0-0.218-0.174-1.527-0.349-3.971c-0.698-0.22-1.179-0.395-1.615-0.48
			c-1.659-0.437-3.535-0.698-5.63-0.698s-3.927,0.307-5.324,0.873c-1.396,0.567-2.618,1.396-3.623,2.443
			c-2.095,2.227-3.098,5.237-3.098,8.99c0,3.928,1.047,6.981,3.187,9.252c2.095,2.182,4.844,3.315,8.247,3.315
			C428.814,549.771,431.345,549.16,433.658,547.938z"/>
		<path fill="#FFFFFF" d="M466.82,522.19c4.319,1.396,6.459,4.451,6.459,9.076c0,2.969-0.96,5.324-2.969,7.07
			c-2.095,1.833-4.975,2.793-8.641,2.793h-4.451v8.51c0.263,0.088,1.135,0.263,2.531,0.523c0.438,0.087,0.611,0.393,0.611,0.829
			v1.833h-10.475v-1.833c0-0.438,0.219-0.742,0.654-0.829l2.488-0.48v-24.918c-1.396-0.262-2.227-0.437-2.488-0.522
			c-0.436-0.088-0.654-0.394-0.654-0.829v-1.833h11.783c2.007,0,3.666,0.218,5.149,0.654L466.82,522.19L466.82,522.19z
			 M469.045,531.181c0-2.008-0.611-3.49-1.833-4.626c-1.222-1.135-3.055-1.657-5.542-1.657h-4.451v12.83h4.451
			c2.356,0,4.146-0.567,5.455-1.745c1.309-1.18,1.964-2.75,1.964-4.758L469.045,531.181z"/>
		<path fill="#FFFFFF" d="M498.107,521.58v7.55h-2.096c-0.523,0-0.83-0.219-0.917-0.742c0-0.131-0.131-1.266-0.306-3.359h-11.696
			v10.387h11.521v3.316h-11.521v10.69h11.696c0.174-1.92,0.262-3.011,0.262-3.142c0.087-0.523,0.438-0.698,0.96-0.698h2.096v7.244
			h-22.432v-1.833c0-0.438,0.218-0.742,0.654-0.829l2.488-0.48v-24.918c-1.396-0.262-2.227-0.437-2.488-0.522
			c-0.437-0.088-0.654-0.394-0.654-0.829v-1.833L498.107,521.58L498.107,521.58z"/>
		<path fill="#FFFFFF" d="M531.576,537.29c0,2.355-0.35,4.451-1.091,6.415c-0.742,1.964-1.79,3.666-3.143,5.063
			s-2.924,2.487-4.844,3.273c-1.92,0.785-4.015,1.222-6.284,1.222c-2.269,0-4.364-0.437-6.284-1.222
			c-1.92-0.786-3.534-1.877-4.888-3.273c-1.354-1.396-2.4-3.099-3.142-5.063c-0.742-1.964-1.136-4.103-1.136-6.458
			c0-2.357,0.394-4.495,1.136-6.459c0.741-1.964,1.788-3.666,3.142-5.063c1.354-1.396,2.968-2.53,4.888-3.315
			c1.92-0.786,4.016-1.18,6.284-1.18c2.27,0,4.364,0.394,6.284,1.18c1.92,0.785,3.535,1.876,4.888,3.271
			c1.354,1.396,2.4,3.1,3.143,5.063s1.091,4.103,1.091,6.459L531.576,537.29z M527.212,537.29c0-1.92-0.262-3.665-0.785-5.193
			c-0.523-1.526-1.222-2.836-2.182-3.884c-0.96-1.047-2.095-1.833-3.491-2.399c-1.396-0.566-2.967-0.829-4.626-0.829
			c-1.658,0-3.142,0.263-4.539,0.829c-1.396,0.566-2.531,1.354-3.491,2.399c-0.96,1.048-1.746,2.356-2.269,3.884
			c-0.524,1.528-0.786,3.273-0.786,5.193c0,1.921,0.262,3.622,0.786,5.148c0.522,1.527,1.309,2.794,2.269,3.842
			c0.96,1.047,2.096,1.876,3.491,2.442c1.396,0.567,2.924,0.873,4.583,0.873c1.658,0,3.187-0.306,4.582-0.873
			c1.396-0.566,2.531-1.396,3.491-2.442c0.96-1.048,1.702-2.313,2.226-3.842c0.524-1.526,0.786-3.229,0.786-5.148H527.212z"/>
		<path fill="#FFFFFF" d="M551.124,522.19c4.32,1.396,6.459,4.451,6.459,9.076c0,2.969-0.96,5.324-2.968,7.07
			c-2.096,1.833-4.976,2.793-8.642,2.793h-4.45v8.51c0.262,0.088,1.134,0.263,2.53,0.523c0.438,0.087,0.611,0.393,0.611,0.829v1.833
			h-10.474v-1.833c0-0.438,0.218-0.742,0.653-0.829l2.488-0.48v-24.918c-1.396-0.262-2.226-0.437-2.488-0.522
			c-0.436-0.088-0.653-0.394-0.653-0.829v-1.833h11.782c2.008,0,3.666,0.218,5.149,0.654L551.124,522.19L551.124,522.19z
			 M553.349,531.181c0-2.008-0.61-3.49-1.833-4.626c-1.222-1.135-3.055-1.657-5.542-1.657h-4.45v12.83h4.45
			c2.356,0,4.146-0.567,5.455-1.745c1.31-1.18,1.964-2.75,1.964-4.758L553.349,531.181z"/>
		<path fill="#FFFFFF" d="M581.887,552.826h-1.047h-0.35h-17.369h-3.143v-1.877c0-0.394,0.263-0.741,0.654-0.829
			c0.394-0.087,2.488-0.479,2.488-0.479v-24.919c0,0-2.095-0.393-2.488-0.479c-0.393-0.088-0.654-0.438-0.654-0.829v-1.833h3.143
			h4.189h3.142v1.833c0,0.393-0.262,0.741-0.654,0.829c-0.35,0.087-2.399,0.479-2.487,0.479v24.526h11.259
			c0.087-1.223,0.218-2.313,0.262-2.488c0.087-0.436,0.479-0.741,0.916-0.741h2.139L581.887,552.826L581.887,552.826z"/>
		<path fill="#FFFFFF" d="M607.282,521.58v7.55h-2.095c-0.523,0-0.829-0.219-0.918-0.742c0-0.131-0.131-1.266-0.306-3.359H592.27
			v10.387h11.521v3.316H592.27v10.69h11.695c0.175-1.92,0.264-3.011,0.264-3.142c0.087-0.523,0.437-0.698,0.96-0.698h2.095v7.244
			h-22.433v-1.833c0-0.438,0.22-0.742,0.655-0.829l2.487-0.48v-24.918c-1.396-0.262-2.227-0.437-2.487-0.522
			c-0.437-0.088-0.655-0.394-0.655-0.829v-1.833L607.282,521.58L607.282,521.58z"/>
		<path fill="#FFFFFF" d="M645.071,521.58v6.895h-2.14c-0.522,0-0.741-0.131-0.828-0.436c-0.088-0.306-0.263-1.223-0.438-2.881
			h-7.331v24.524c0,0,0.174,0,0.523,0.089c1.135,0.218,1.876,0.349,2.182,0.437c0.306,0.087,0.437,0.35,0.437,0.785v1.833h-10.561
			v-1.833c0-0.438,0.262-0.785,0.741-0.873c0.479-0.087,1.266-0.262,2.399-0.479v-24.526h-7.375
			c-0.175,1.659-0.306,2.619-0.393,2.925c-0.088,0.305-0.35,0.436-0.873,0.436h-2.095v-6.895h23.564h1.484L645.071,521.58
			L645.071,521.58z"/>
		<path fill="#FFFFFF" d="M675.747,524.722v24.919c1.396,0.263,2.269,0.438,2.618,0.523c0.349,0.087,0.522,0.35,0.522,0.785v1.877
			h-10.561v-1.877c0-0.437,0.262-0.741,0.698-0.829l2.442-0.479V538.6h-16.845v11.041c2.095,0.438,3.142,0.873,3.142,1.31v1.877
			H647.25v-1.877c0-0.437,0.218-0.741,0.654-0.829l2.486-0.479v-24.919c-1.396-0.262-2.27-0.437-2.617-0.522
			c-0.351-0.087-0.523-0.35-0.523-0.785v-1.833h10.517v1.833c0,0.438-0.131,0.698-0.437,0.785c-0.305,0.087-1.178,0.262-2.661,0.522
			v10.779h16.845v-10.779c-1.396-0.262-2.27-0.437-2.617-0.522c-0.351-0.087-0.524-0.35-0.524-0.785v-1.833h10.562v1.833
			c0,0.438-0.219,0.741-0.654,0.829L675.747,524.722z"/>
		<path fill="#FFFFFF" d="M707.601,550.12c0.394,0.088,0.654,0.394,0.654,0.786v1.92h-0.785h-2.355h-1.396
			c-0.785,0-1.31-0.307-1.658-0.916l-8.116-11.172c-0.263-0.351-0.523-0.567-0.785-0.742c-0.264-0.175-0.699-0.262-1.311-0.262
			h-2.793v9.861c0,0,2.096,0.438,2.443,0.523c0.394,0.088,0.698,0.394,0.698,0.786v1.876h-3.143h-4.232h-3.143v-1.876
			c0-0.394,0.263-0.698,0.654-0.786c0.393-0.087,2.531-0.523,2.531-0.523v-24.875c0,0-2.14-0.437-2.531-0.522
			s-0.654-0.394-0.654-0.785v-1.921h3.143h8.423c2.007,0,3.709,0.219,5.148,0.61c1.44,0.393,2.618,0.961,3.578,1.746
			c0.961,0.785,1.658,1.701,2.096,2.749c0.437,1.047,0.654,2.313,0.654,3.622c0,1.135-0.175,2.096-0.523,3.056
			c-0.35,0.96-0.872,1.833-1.527,2.617c-0.654,0.786-1.439,1.44-2.398,1.964c-0.962,0.523-2.009,1.005-3.229,1.267
			c0.523,0.306,0.96,0.698,1.396,1.31l6.765,9.251c0.262,0.044,2.095,0.351,2.443,0.438L707.601,550.12L707.601,550.12z
			 M692.981,536.68c1.222,0,2.313-0.131,3.271-0.437c0.959-0.307,1.746-0.786,2.356-1.311c0.61-0.522,1.092-1.135,1.439-1.92
			c0.351-0.785,0.48-1.614,0.48-2.53c0-1.833-0.611-3.229-1.833-4.189c-1.223-0.96-3.013-1.396-5.455-1.396h-4.233v11.782h4.016
			H692.981z"/>
		<path fill="#FFFFFF" d="M739.629,537.29c0,2.355-0.349,4.451-1.091,6.415c-0.741,1.964-1.789,3.666-3.142,5.063
			c-1.354,1.396-2.925,2.487-4.845,3.273c-1.921,0.785-4.016,1.222-6.285,1.222c-2.269,0-4.362-0.437-6.282-1.222
			c-1.922-0.786-3.535-1.877-4.89-3.273c-1.353-1.396-2.398-3.099-3.142-5.063s-1.135-4.103-1.135-6.458
			c0-2.357,0.393-4.495,1.135-6.459s1.789-3.666,3.142-5.063c1.354-1.396,2.969-2.53,4.89-3.315c1.92-0.786,4.015-1.18,6.282-1.18
			c2.271,0,4.364,0.394,6.285,1.18c1.92,0.785,3.534,1.876,4.888,3.271c1.354,1.396,2.399,3.1,3.143,5.063s1.091,4.103,1.091,6.459
			L739.629,537.29z M735.266,537.29c0-1.92-0.262-3.665-0.785-5.193c-0.523-1.526-1.223-2.836-2.183-3.884
			c-0.96-1.047-2.095-1.833-3.491-2.399c-1.396-0.566-2.968-0.829-4.626-0.829c-1.657,0-3.142,0.263-4.538,0.829
			c-1.396,0.566-2.53,1.354-3.49,2.399c-0.961,1.048-1.746,2.356-2.271,3.884c-0.522,1.528-0.786,3.273-0.786,5.193
			c0,1.921,0.264,3.622,0.786,5.148c0.523,1.527,1.31,2.794,2.271,3.842c0.96,1.047,2.095,1.876,3.49,2.442
			c1.396,0.567,2.925,0.873,4.582,0.873c1.658,0,3.187-0.306,4.582-0.873c1.396-0.566,2.531-1.396,3.491-2.442
			c0.96-1.048,1.702-2.313,2.226-3.842c0.524-1.527,0.785-3.229,0.785-5.148H735.266z"/>
		<path fill="#FFFFFF" d="M772.705,521.58v1.876c0,0.437-0.262,0.742-0.698,0.829l-2.487,0.479v15.842
			c0,3.665-1.135,6.634-3.315,8.989c-2.271,2.4-5.324,3.622-9.121,3.622c-3.753,0-6.808-1.222-9.077-3.622
			c-2.226-2.355-3.359-5.323-3.359-8.989v-15.842c-1.396-0.262-2.227-0.437-2.487-0.522c-0.438-0.088-0.654-0.394-0.654-0.829
			v-1.833h10.953v1.833c0,0.437-0.262,0.741-0.698,0.829c-0.218,0.043-1.135,0.218-2.88,0.479v15.798
			c0,2.662,0.698,4.845,2.183,6.459c1.483,1.658,3.534,2.487,6.065,2.487s4.582-0.829,6.065-2.487
			c1.439-1.614,2.183-3.753,2.183-6.415v-15.842c-1.702-0.262-2.662-0.437-2.881-0.479c-0.438-0.088-0.698-0.394-0.698-0.829v-1.833
			h3.579h4.189H772.705L772.705,521.58z"/>
		<path fill="#FFFFFF" d="M797.926,547.938v-6.896h-4.845c-0.262,0-0.523-0.087-0.698-0.262c-0.174-0.174-0.262-0.307-0.262-0.567
			v-2.399h9.602v12.002c-3.143,2.269-7.069,3.359-11.871,3.359c-4.537,0-8.246-1.439-11.128-4.408
			c-2.88-2.968-4.319-6.852-4.319-11.563c0-4.802,1.396-8.642,4.275-11.521c2.926-2.967,6.81-4.451,11.696-4.451
			c3.403,0,7.069,0.786,11.041,2.271v7.244h-2.095c-0.524,0-0.829-0.175-0.917-0.698c0-0.218-0.175-1.527-0.35-3.971
			c-0.697-0.22-1.179-0.395-1.614-0.48c-1.658-0.437-3.534-0.698-5.629-0.698c-2.096,0-3.929,0.307-5.324,0.873
			c-1.396,0.567-2.619,1.396-3.622,2.443c-2.095,2.227-3.099,5.237-3.099,8.99c0,3.928,1.047,6.981,3.186,9.252
			c2.095,2.182,4.844,3.315,8.248,3.315C793.081,549.771,795.612,549.16,797.926,547.938z"/>
		<path fill="#FFFFFF" d="M833.229,524.722v24.919c1.396,0.263,2.269,0.438,2.617,0.523c0.35,0.087,0.523,0.35,0.523,0.785v1.877
			h-10.562v-1.877c0-0.437,0.263-0.741,0.698-0.829l2.443-0.479V538.6h-16.845v11.041c2.095,0.438,3.142,0.873,3.142,1.31v1.877
			H804.73v-1.877c0-0.437,0.218-0.741,0.653-0.829l2.487-0.479v-24.919c-1.396-0.262-2.271-0.437-2.618-0.522
			c-0.35-0.087-0.522-0.35-0.522-0.785v-1.833h10.517v1.833c0,0.438-0.131,0.698-0.438,0.785c-0.305,0.087-1.178,0.262-2.66,0.522
			v10.779h16.845v-10.779c-1.396-0.262-2.271-0.437-2.618-0.522c-0.35-0.087-0.524-0.35-0.524-0.785v-1.833h10.563v1.833
			c0,0.438-0.219,0.741-0.655,0.829L833.229,524.722z"/>
		<path fill="#FFFFFF" d="M873.808,521.58v6.895h-2.139c-0.522,0-0.742-0.131-0.829-0.436c-0.087-0.306-0.262-1.223-0.437-2.881
			h-7.331v24.524c0,0,0.174,0,0.522,0.089c1.136,0.218,1.876,0.349,2.183,0.437c0.306,0.087,0.437,0.35,0.437,0.785v1.833h-10.561
			v-1.833c0-0.438,0.262-0.785,0.741-0.873c0.479-0.087,1.266-0.262,2.399-0.479v-24.526h-7.375
			c-0.175,1.659-0.306,2.619-0.393,2.925c-0.088,0.305-0.351,0.436-0.873,0.436h-2.095v-6.895h23.564h1.484L873.808,521.58
			L873.808,521.58z"/>
		<path fill="#FFFFFF" d="M901.909,550.12c0.393,0.088,0.653,0.394,0.653,0.786v1.92h-0.784h-2.356h-1.396
			c-0.785,0-1.311-0.307-1.658-0.916l-8.117-11.172c-0.262-0.351-0.523-0.567-0.785-0.742c-0.263-0.175-0.699-0.262-1.31-0.262
			h-2.793v9.861c0,0,2.095,0.438,2.442,0.523c0.395,0.088,0.698,0.394,0.698,0.786v1.876h-3.142h-4.233h-3.142v-1.876
			c0-0.394,0.262-0.698,0.653-0.786c0.394-0.087,2.531-0.523,2.531-0.523v-24.875c0,0-2.139-0.437-2.531-0.522
			c-0.392-0.086-0.653-0.394-0.653-0.785v-1.921h3.142h8.423c2.007,0,3.709,0.219,5.149,0.61c1.439,0.393,2.618,0.961,3.578,1.746
			c0.961,0.785,1.657,1.701,2.095,2.749c0.437,1.047,0.655,2.313,0.655,3.622c0,1.135-0.176,2.096-0.524,3.056
			s-0.872,1.833-1.527,2.617c-0.653,0.786-1.438,1.44-2.398,1.964c-0.961,0.523-2.008,1.005-3.229,1.267
			c0.523,0.306,0.96,0.698,1.396,1.31l6.764,9.251c0.262,0.044,2.095,0.351,2.444,0.438L901.909,550.12L901.909,550.12z
			 M887.29,536.68c1.222,0,2.313-0.131,3.271-0.437c0.959-0.307,1.746-0.786,2.356-1.311c0.611-0.522,1.092-1.135,1.44-1.92
			c0.35-0.785,0.479-1.614,0.479-2.53c0-1.833-0.611-3.229-1.833-4.189s-3.012-1.396-5.455-1.396h-4.232v11.782h4.015H887.29z"/>
		<path fill="#FFFFFF" d="M936.381,551.08v1.746h-8.989v-1.746c0-0.394,0.219-0.61,0.61-0.697l1.789-0.523l-2.443-6.284h-13.483
			l-2.444,6.284l1.789,0.523c0.393,0.087,0.567,0.306,0.567,0.697v1.746h-8.946v-1.746c0-0.394,0.219-0.61,0.567-0.697l1.745-0.523
			l11.347-28.278h4.276l11.304,28.278l1.745,0.523C936.163,550.47,936.381,550.688,936.381,551.08z M926.169,540.521l-4.626-12.046
			c-0.349-0.784-0.654-1.744-0.96-2.924c-0.349,1.311-0.61,2.271-0.872,2.968l-4.67,12.002H926.169z"/>
		<path fill="#FFFFFF" d="M963.783,545.931c-0.087-0.609-0.087-1.396-0.087-2.182V524.81c-1.702-0.263-2.618-0.479-2.88-0.523
			c-0.438-0.087-0.699-0.35-0.699-0.785v-1.92h3.579h3.709h3.187v1.92c0,0.438-0.263,0.698-0.699,0.785l-2.486,0.523v28.062h-2.139
			c-0.61,0-1.048-0.219-1.483-0.742l-18.11-23.565c0.087,0.741,0.087,1.396,0.087,2.008v19.113c1.746,0.264,2.706,0.48,2.925,0.524
			c0.437,0.087,0.61,0.349,0.61,0.785v1.877h-10.387v-1.877c0-0.438,0.219-0.698,0.655-0.785l2.486-0.524V524.81
			c-1.396-0.263-2.226-0.437-2.486-0.523c-0.438-0.087-0.655-0.394-0.655-0.829v-1.876h5.324c0.35,0,0.654,0.043,0.829,0.131
			c0.175,0.087,0.394,0.307,0.654,0.567l18.066,23.564V545.931z"/>
		<path fill="#FFFFFF" d="M987.606,536.286c3.143,1.396,4.713,3.754,4.713,7.025c0,2.882-0.872,5.193-2.705,7.026
			c-1.921,1.92-4.539,2.837-7.77,2.837c-1.353,0-2.793-0.132-4.275-0.394c-1.483-0.263-2.618-0.567-3.491-0.829l-1.266-0.438v-7.854
			h2.139c0.522,0,0.785,0.218,0.873,0.741c0.043,0.175,0.131,0.917,0.218,2.139s0.131,1.92,0.131,1.92
			c2.183,0.786,3.928,1.222,5.324,1.222c1.396,0,2.442-0.174,3.229-0.436c0.785-0.262,1.483-0.655,2.008-1.179
			c1.135-1.048,1.658-2.4,1.658-4.146c0-1.658-0.786-2.968-2.356-3.841c-0.698-0.438-1.483-0.785-2.356-1.047
			c-2.793-0.873-4.626-1.44-5.498-1.833c-0.873-0.394-1.702-0.96-2.399-1.571c-1.571-1.396-2.313-3.359-2.313-5.848
			c0-2.356,0.829-4.276,2.488-5.936c1.789-1.746,4.102-2.619,6.981-2.619c2.881,0,5.805,0.523,8.771,1.746v7.2h-2.095
			c-0.524,0-0.829-0.218-0.917-0.741c0-0.088-0.131-1.354-0.306-3.885c-1.921-0.523-3.666-0.829-5.149-0.829
			c-1.832,0-3.316,0.438-4.363,1.396c-0.961,0.873-1.484,2.095-1.484,3.491c0,1.526,0.786,2.75,2.356,3.621
			c0.698,0.438,1.527,0.786,2.444,1.092c2.617,0.873,4.45,1.527,5.498,1.964h-0.087V536.286z"/>
		<path fill="#FFFFFF" d="M1002.181,524.722v24.919c1.396,0.263,2.313,0.438,2.662,0.523c0.35,0.087,0.523,0.35,0.523,0.785v1.877
			h-10.519v-1.877c0-0.437,0.176-0.741,0.611-0.829l2.531-0.479v-24.919c-1.396-0.262-2.271-0.437-2.618-0.522
			c-0.35-0.087-0.524-0.35-0.524-0.785v-1.833h10.519v1.833c0,0.437-0.218,0.741-0.654,0.829L1002.181,524.722z"/>
		<path fill="#FFFFFF" d="M1033.382,521.58v6.895h-2.139c-0.523,0-0.742-0.131-0.829-0.436c-0.087-0.306-0.262-1.223-0.438-2.881
			h-7.33v24.524c0,0,0.174,0,0.522,0.089c1.135,0.218,1.876,0.349,2.182,0.437c0.307,0.087,0.438,0.35,0.438,0.785v1.833h-10.562
			v-1.833c0-0.438,0.263-0.785,0.741-0.873c0.48-0.087,1.267-0.262,2.4-0.479v-24.526h-7.375c-0.175,1.659-0.306,2.619-0.394,2.925
			c-0.088,0.305-0.35,0.436-0.873,0.436h-2.095v-6.895h23.565h1.483L1033.382,521.58L1033.382,521.58z"/>
		<path fill="#FFFFFF" d="M1042.936,524.722v24.919c1.396,0.263,2.313,0.438,2.662,0.523c0.35,0.087,0.523,0.35,0.523,0.785v1.877
			h-10.518v-1.877c0-0.437,0.175-0.741,0.61-0.829l2.531-0.479v-24.919c-1.396-0.262-2.271-0.437-2.618-0.522
			c-0.35-0.087-0.524-0.35-0.524-0.785v-1.833h10.519v1.833c0,0.437-0.219,0.741-0.654,0.829L1042.936,524.722z"/>
		<path fill="#FFFFFF" d="M1079.199,537.29c0,2.355-0.351,4.451-1.092,6.415s-1.789,3.666-3.143,5.063
			c-1.353,1.397-2.924,2.487-4.845,3.273c-1.92,0.785-4.015,1.222-6.283,1.222c-2.27,0-4.364-0.437-6.285-1.222
			c-1.92-0.786-3.534-1.877-4.887-3.273c-1.354-1.396-2.4-3.099-3.143-5.063c-0.743-1.964-1.136-4.103-1.136-6.458
			c0-2.357,0.394-4.495,1.136-6.459c0.741-1.964,1.788-3.666,3.143-5.063c1.353-1.396,2.967-2.53,4.887-3.315
			c1.921-0.786,4.017-1.18,6.285-1.18c2.27,0,4.363,0.394,6.283,1.18c1.921,0.785,3.535,1.876,4.889,3.271
			c1.354,1.396,2.399,3.1,3.143,5.063c0.742,1.964,1.091,4.103,1.091,6.459L1079.199,537.29z M1074.835,537.29
			c0-1.92-0.262-3.665-0.786-5.193c-0.522-1.526-1.222-2.836-2.182-3.884c-0.96-1.047-2.096-1.833-3.491-2.399
			s-2.968-0.829-4.626-0.829s-3.142,0.263-4.538,0.829c-1.396,0.566-2.531,1.354-3.491,2.399c-0.961,1.048-1.746,2.356-2.27,3.884
			c-0.523,1.528-0.785,3.273-0.785,5.193c0,1.921,0.262,3.622,0.785,5.148c0.523,1.527,1.309,2.794,2.27,3.842
			c0.96,1.047,2.096,1.876,3.491,2.442c1.396,0.567,2.924,0.873,4.582,0.873s3.187-0.306,4.582-0.873
			c1.396-0.566,2.531-1.396,3.491-2.442c0.96-1.048,1.702-2.313,2.226-3.842c0.524-1.527,0.785-3.229,0.785-5.148H1074.835z"/>
		<path fill="#FFFFFF" d="M1106.165,545.931c-0.087-0.609-0.087-1.396-0.087-2.182V524.81c-1.702-0.263-2.618-0.479-2.881-0.523
			c-0.437-0.087-0.697-0.35-0.697-0.785v-1.92h3.578h3.709h3.186v1.92c0,0.438-0.262,0.698-0.696,0.785l-2.488,0.523v28.062h-2.138
			c-0.611,0-1.049-0.219-1.484-0.742l-18.11-23.565c0.087,0.741,0.087,1.396,0.087,2.008v19.113c1.746,0.264,2.707,0.48,2.925,0.524
			c0.437,0.087,0.61,0.349,0.61,0.785v1.877h-10.387v-1.877c0-0.438,0.219-0.698,0.655-0.785l2.487-0.524V524.81
			c-1.396-0.263-2.227-0.437-2.487-0.523c-0.438-0.087-0.655-0.394-0.655-0.829v-1.876h5.324c0.35,0,0.654,0.043,0.829,0.131
			c0.175,0.087,0.393,0.307,0.654,0.567l18.066,23.564V545.931z"/>
	</g>
	<g>
		<path fill="#FFFFFF" d="M183.668,93.386c-0.609,0-1.624,0.406-3.045,0.608c-1.421,0.203-3.451,0.609-5.886,1.016v106.568
			c2.436,0.406,4.465,0.812,5.886,1.015c1.421,0.203,2.436,0.609,3.045,0.609s1.015,0.203,1.218,0.203
			c3.451,0.812,5.075,2.842,5.075,6.292v11.977h-15.224h-24.156h-18.269v-11.977c0-3.45,1.624-5.48,5.075-6.292
			c0.406,0,4.872-0.609,13.194-1.827v-74.699c0-1.827,0.203-3.654,0.203-5.684c0-2.03,0.203-4.263,0.406-6.496l-44.251,83.225
			c-1.015,1.827-2.436,3.451-4.06,4.466c-1.624,1.016-3.451,1.624-5.684,1.624h-3.654c-2.233,0-4.06-0.608-5.684-1.624
			c-1.624-1.015-3.045-2.639-4.06-4.466l-44.86-83.428c0.203,2.233,0.203,4.466,0.406,6.496c0.203,2.029,0.203,4.06,0.203,5.887
			v74.699c8.525,1.218,12.788,1.827,13.194,1.827c3.451,0.812,5.075,2.842,5.075,6.292v11.977H39.547H15.595H0.167v-11.977
			c0-3.45,1.624-5.48,5.075-6.292c0.203,0,0.609,0,1.218-0.203s1.624-0.406,3.044-0.609c1.42-0.203,3.654-0.608,6.09-1.015V95.01
			c-2.436-0.406-4.669-0.813-6.09-1.016c-1.421-0.202-2.436-0.608-3.044-0.608c-0.609-0.203-1.015-0.203-1.218-0.203
			c-3.451-0.812-5.075-2.842-5.075-6.293V74.914h15.427h20.502c1.218,0,2.436,0.203,3.248,0.203c0.812,0,1.827,0.202,2.436,0.405
			c0.812,0.203,1.218,0.813,1.827,1.421c0.609,0.609,1.218,1.421,1.827,2.437l43.845,81.397c1.218,2.233,2.03,4.466,3.045,6.699
			c1.015,2.232,2.03,4.668,3.044,7.104c1.015-2.437,1.827-4.669,2.842-7.104c1.015-2.437,2.03-4.669,3.248-6.902l43.439-81.194
			c0.609-1.016,1.015-1.827,1.624-2.437c0.609-0.608,1.218-1.218,2.03-1.421s1.624-0.405,2.436-0.405s1.827-0.203,3.045-0.203
			h20.705h15.224V86.89c0,3.451-1.624,5.481-5.075,6.293C184.684,93.183,184.277,93.386,183.668,93.386z"/>
		<path fill="#FFFFFF" d="M306.073,74.914v14.209v7.511v16.848h-1.016h-2.436H294.3c-2.639,0-4.06-1.421-4.668-3.856
			c-0.203-1.624-0.812-5.887-1.421-12.991h-47.296v40.597h49.732v21.111h-49.732v41.409h47.296
			c0.609-7.104,1.218-11.367,1.421-12.991c0.609-2.436,2.03-3.856,4.668-3.856h8.323h2.436h1.016v16.848v7.714v14.209h-92.563
			h-15.427v-11.977c0-3.45,1.624-5.48,5.075-6.292c0.203,0,0.609-0.203,1.218-0.203s1.624-0.406,3.044-0.609
			c1.42-0.203,3.654-0.608,6.09-1.015V95.01c-2.436-0.406-4.669-0.813-6.09-1.016c-1.421-0.202-2.436-0.608-3.044-0.608
			s-1.015-0.203-1.218-0.203c-3.451-0.812-5.075-2.842-5.075-6.293V74.914h15.427H306.073z"/>
		<path fill="#FFFFFF" d="M420.965,186.557v20.502v3.856v10.759h-4.872h-0.608h-85.458h-15.428v-11.977
			c0-3.45,1.624-5.48,5.075-6.292c0.203,0,0.609,0,1.218-0.203c0.609-0.203,1.624-0.406,3.044-0.609
			c1.421-0.203,3.654-0.608,6.091-1.015V95.01c-2.437-0.406-4.669-0.813-6.091-1.016c-1.421-0.202-2.436-0.608-3.044-0.608
			c-0.608-0.203-1.015-0.203-1.218-0.203c-3.451-0.812-5.075-2.842-5.075-6.293V74.914h15.428h27.199h15.428V86.89
			c0,3.451-1.624,5.481-5.075,6.293c-0.203,0-0.609,0-1.218,0.203c-0.609,0.203-1.624,0.406-3.045,0.608
			c-1.422,0.203-3.654,0.609-6.091,1.016v104.133h47.296c0.406-5.075,0.609-7.917,0.813-8.729c0.609-2.437,2.03-3.857,4.668-3.857
			H420.965z"/>
		<path fill="#FFFFFF" d="M566.102,74.914V86.89c0,3.451-1.624,5.481-5.073,6.293c-0.406,0-0.609,0.203-1.219,0.203
			c-0.608,0-1.421,0.406-2.842,0.608c-1.421,0.203-3.451,0.609-5.886,1.016l-51.153,126.664h-24.561L424.011,95.01
			c-2.436-0.406-4.263-0.813-5.684-1.016c-1.421-0.202-2.437-0.608-3.045-0.608c-0.609-0.203-0.813-0.203-1.218-0.203
			c-3.451-0.812-5.075-2.842-5.075-6.293V74.914h7.104h8.322h13.6h25.78V86.89c0,3.451-1.624,5.481-5.075,6.293
			c-0.203,0-0.608,0-1.015,0.203c-0.406,0.203-1.015,0.406-2.03,0.608c-1.015,0.203-2.03,0.609-3.248,0.813l29.23,75.917
			c1.218,2.842,2.232,6.09,3.248,9.541c1.015,3.45,2.029,7.104,3.045,10.961c1.624-7.714,3.654-14.615,5.887-20.502l29.027-75.917
			c-1.219-0.203-2.233-0.609-3.248-0.813c-1.016-0.202-1.827-0.405-2.233-0.608c-0.405-0.203-0.812-0.203-1.015-0.203
			c-3.451-0.812-5.075-2.842-5.075-6.293V74.914h25.982h13.6h8.322H566.102z"/>
		<path fill="#FFFFFF" d="M755.287,186.557v20.502v3.856v10.759h-4.871h-0.609H664.35h-15.428v-11.977
			c0-3.45,1.624-5.48,5.075-6.292c0.203,0,0.608,0,1.218-0.203c0.608-0.203,1.624-0.406,3.045-0.609
			c1.421-0.203,3.653-0.608,6.09-1.015V95.01c-2.437-0.406-4.669-0.813-6.09-1.016c-1.421-0.202-2.437-0.608-3.045-0.608
			c-0.608-0.203-1.015-0.203-1.218-0.203c-3.451-0.812-5.075-2.842-5.075-6.293V74.914h15.428h27.2h15.427V86.89
			c0,3.451-1.624,5.481-5.074,6.293c-0.202,0-0.608,0-1.219,0.203c-0.607,0.203-1.624,0.406-3.045,0.608
			c-1.421,0.203-3.652,0.609-6.089,1.016v104.133h47.296c0.406-5.075,0.608-7.917,0.813-8.729c0.608-2.437,2.03-3.857,4.669-3.857
			H755.287z"/>
		<path fill="#FFFFFF" d="M869.977,186.557v20.502v3.856v10.759h-4.871h-0.609h-85.458H763.61v-11.977
			c0-3.45,1.624-5.48,5.074-6.292c0.203,0,0.608,0,1.219-0.203c0.607-0.203,1.624-0.406,3.045-0.609
			c1.421-0.203,3.652-0.608,6.089-1.015V95.01c-2.437-0.406-4.668-0.813-6.089-1.016c-1.421-0.202-2.438-0.608-3.045-0.608
			c-0.609-0.203-1.016-0.203-1.219-0.203c-3.45-0.812-5.074-2.842-5.074-6.293V74.914h15.427h27.201h15.427V86.89
			c0,3.451-1.624,5.481-5.075,6.293c-0.202,0-0.607,0-1.218,0.203c-0.608,0.203-1.624,0.406-3.045,0.608
			c-1.421,0.203-3.653,0.609-6.089,1.016v104.133h47.296c0.406-5.075,0.607-7.917,0.812-8.729c0.609-2.437,2.03-3.857,4.669-3.857
			H869.977z"/>
		<path fill="#FFFFFF" d="M986.288,74.914v14.209v7.511v16.848h-1.015h-2.437h-8.322c-2.64,0-4.061-1.421-4.669-3.856
			c-0.203-1.624-0.813-5.887-1.421-12.991H921.13v40.597h49.731v21.111H921.13v41.409h47.296c0.608-7.104,1.219-11.367,1.421-12.991
			c0.608-2.436,2.029-3.856,4.669-3.856h8.322h2.437h1.015v16.848v7.714v14.209h-92.563h-15.428v-11.977
			c0-3.45,1.624-5.48,5.075-6.292c0.203,0,0.608-0.203,1.218-0.203c0.608,0,1.624-0.406,3.045-0.609
			c1.421-0.203,3.653-0.608,6.091-1.015V95.01c-2.438-0.406-4.669-0.813-6.091-1.016c-1.421-0.202-2.437-0.608-3.045-0.608
			s-1.015-0.203-1.218-0.203c-3.451-0.812-5.075-2.842-5.075-6.293V74.914h15.428H986.288z"/>
		<path fill="#FFFFFF" d="M1112.951,175.799c0,6.698-1.218,12.585-3.451,18.472c-2.232,5.887-5.48,10.961-9.946,15.224
			c-4.263,4.263-9.743,7.714-16.036,10.149c-6.292,2.437-13.396,3.654-21.517,3.654h-3.045c-12.991,0-26.997-2.639-42.019-7.714
			v-3.653v-34.103h0.813h2.436h8.322c2.641,0,4.062,1.219,4.669,3.654c0.406,1.827,1.017,7.511,1.827,16.848
			c5.887,1.827,15.224,2.639,27.811,2.639c7.713,0,13.803-1.826,18.064-5.479c4.263-3.653,6.293-8.932,6.293-15.833
			c0-3.856-1.015-7.104-2.842-9.54c-1.827-2.437-4.466-4.466-7.714-6.09s-6.698-3.045-10.759-4.263
			c-4.061-1.218-8.322-2.233-12.383-3.654c-4.263-1.421-8.322-3.044-12.382-4.871c-4.06-1.827-7.714-4.466-10.962-7.511
			c-3.247-3.045-5.684-6.698-7.51-11.367c-1.827-4.466-3.045-10.149-3.045-16.848c0-5.278,1.015-10.556,3.246-15.631
			c2.03-5.074,5.278-9.743,9.339-13.6c4.06-3.857,9.135-6.901,15.021-9.338c5.886-2.436,12.788-3.653,20.501-3.653
			c14.412,0,28.419,2.842,42.02,8.322v37.553h-0.813h-2.437h-8.322c-2.639,0-4.061-1.421-4.669-3.856
			c-0.405-1.827-1.015-7.308-1.826-16.442c-5.075-2.232-13.194-3.248-23.75-3.248c-3.856,0-6.901,0.406-9.743,1.218
			c-2.842,1.016-5.277,2.233-7.104,3.857c-1.827,1.624-3.451,3.653-4.467,5.887c-1.015,2.232-1.421,4.871-1.421,7.511
			c0,3.45,1.219,6.292,3.046,8.525c1.826,2.232,4.263,4.263,7.511,5.887c3.247,1.623,6.9,3.247,10.961,4.465
			c4.06,1.219,8.119,2.64,12.382,4.061c4.263,1.421,8.323,3.247,12.383,5.074c4.061,1.827,7.714,4.263,10.961,7.308
			c3.248,3.045,5.888,6.496,7.715,10.759C1112.14,164.432,1112.951,169.709,1112.951,175.799z"/>
	</g>
	<g>
		<path fill="#FFFFFF" d="M219.286,420.515c0,11.232-2.148,21.379-6.445,30.801c-4.297,9.421-10.383,17.755-18.261,24.64
			c-7.877,6.885-17.544,11.958-29.36,15.943c-11.815,3.985-25.063,5.798-40.101,5.798H27.373H0.161v-21.379
			c0-6.16,2.864-9.783,8.951-11.232c0.358,0,1.074-0.362,2.148-0.362c1.074,0,2.865-0.725,5.371-1.087
			c2.506-0.361,6.445-1.088,10.741-1.813V271.589c-4.296-0.725-8.235-1.449-10.741-1.812c-2.506-0.363-4.297-1.088-5.371-1.088
			c-1.074,0-1.79-0.362-2.148-0.362c-6.087-1.449-8.951-5.072-8.951-11.232v-21.379h27.211h89.154
			c16.828,0,31.15,1.449,43.324,4.711c12.174,3.261,22.199,7.972,29.718,14.132c7.877,6.159,13.248,13.406,16.829,22.103
			c3.58,8.696,5.371,17.756,5.371,28.626c0,6.16-0.716,11.958-2.506,17.755c-1.791,5.798-5.013,11.233-8.593,15.942
			c-3.938,5.074-8.593,9.061-14.322,13.046s-12.532,7.247-20.409,10.146C201.384,370.147,219.286,389.715,219.286,420.515z
			 M75.351,349.132h38.669c16.47,0,28.644-2.898,37.237-9.059c8.593-6.16,12.532-15.943,12.532-28.988
			c0-13.77-3.938-23.189-11.458-28.988c-7.52-5.798-19.692-8.696-35.805-8.696H75.351V349.132z M171.666,419.429
			c0-5.799-1.074-10.509-2.864-15.22c-1.79-4.349-4.296-8.334-8.235-11.597c-3.938-3.26-8.593-5.434-14.68-7.246
			c-6.087-1.813-13.248-2.536-21.841-2.536H75.351v76.818h49.052c8.951,0,16.47-1.088,22.557-3.262
			c6.087-2.175,10.741-5.072,14.322-8.695c3.581-3.624,6.445-7.974,7.877-12.684C170.95,430.298,171.666,424.863,171.666,419.429z"
			/>
		<path fill="#FFFFFF" d="M412.688,432.553v16.897h-3.963H391.18h-16.695c-3.396,0-6.227-0.573-8.49-2.005
			c-2.264-1.433-3.961-3.15-5.66-5.729l-43.014-66.442c-1.698-2.577-3.396-4.01-5.377-5.155c-1.981-1.146-4.812-1.718-8.49-1.718
			H289.02v52.695c3.396,0.572,6.509,1.146,8.49,1.433c1.981,0.286,3.396,0.858,4.245,0.858s1.415,0.286,1.698,0.286
			c4.811,1.146,7.075,4.011,7.075,8.878v16.897h-21.507H251.1h-21.507v-16.897c0-4.868,2.264-7.731,7.075-8.878
			c0.283,0,0.849-0.286,1.698-0.286c0.849-0.285,2.264-0.572,4.245-0.858s5.094-0.859,8.49-1.433V270.741
			c-3.396-0.572-6.509-1.146-8.49-1.432c-1.981-0.286-3.396-0.859-4.245-0.859c-0.849,0-1.415-0.286-1.698-0.286
			c-4.811-1.146-7.075-4.01-7.075-8.878v-16.897H251.1h60.277c13.866,0,26.035,1.432,35.939,4.296
			c9.904,2.864,18.11,7.16,24.337,12.314c6.226,5.155,11.318,11.742,14.148,18.902c3.113,7.445,4.528,15.179,4.528,24.057
			c0,6.874-1.132,13.461-3.113,19.762c-1.98,6.301-5.094,11.741-8.772,16.896c-3.68,5.154-8.49,9.451-14.149,13.174
			c-5.66,3.725-12.168,6.874-19.243,9.165c4.812,2.864,9.057,6.873,12.451,12.028l32.261,48.113c3.396,0.572,6.51,1.146,8.772,1.433
			c2.264,0.286,3.679,0.858,4.811,0.858s1.981,0.286,2.265,0.286C410.423,424.82,412.688,427.685,412.688,432.553z M342.789,330.599
			c3.396-3.15,5.943-7.16,7.641-11.457c1.698-4.295,2.547-9.164,2.547-14.318c0-10.598-3.396-18.615-10.188-24.344
			s-17.262-8.306-31.412-8.306h-22.356v68.733h21.792c7.074,0,13.3-1.146,18.677-2.863
			C334.865,336.325,339.393,333.748,342.789,330.599z"/>
		<path fill="#FFFFFF" d="M495.6,268.45c-0.849,0-2.264,0.573-4.244,0.859c-1.981,0.286-4.812,0.859-8.207,1.432v150.355
			c3.396,0.572,6.226,1.146,8.207,1.433c1.98,0.286,3.396,0.858,4.244,0.858c0.85,0,1.415,0.286,1.698,0.286
			c4.812,1.146,7.075,4.011,7.075,8.878v16.897h-21.224h-38.204h-21.507v-16.897c0-4.868,2.264-7.731,7.074-8.878
			c0.283,0,0.85-0.286,1.698-0.286c0.849-0.285,2.264-0.572,4.245-0.858s5.094-0.859,8.49-1.433V270.741
			c-3.396-0.572-6.509-1.146-8.49-1.432c-1.981-0.286-3.396-0.859-4.245-0.859c-0.849-0.286-1.415-0.286-1.698-0.286
			c-4.811-1.146-7.074-4.01-7.074-8.878v-16.897h21.507h38.204h21.224v16.897c0,4.868-2.264,7.732-7.075,8.878
			C497.015,268.164,496.448,268.45,495.6,268.45z"/>
		<path fill="#FFFFFF" d="M715.761,345.776c0,15.179-2.547,29.211-7.641,41.813s-11.886,23.771-20.941,32.936
			c-9.056,9.165-20.092,16.037-32.827,21.192c-12.733,5.155-26.601,7.732-42.164,7.732h-74.992h-21.508v-16.897
			c0-4.868,2.265-7.731,7.075-8.878c0.283,0,0.85-0.286,1.698-0.286s2.264-0.572,4.245-0.858s5.094-0.859,8.49-1.433V270.741
			c-3.396-0.572-6.509-1.146-8.49-1.432c-1.981-0.286-3.396-0.859-4.245-0.859s-1.415-0.286-1.698-0.286
			c-4.811-1.146-7.075-4.01-7.075-8.878v-16.897h21.508h74.992c15.563,0,29.431,2.577,42.164,7.732
			c12.735,5.155,23.771,12.028,32.827,21.193c9.057,9.164,15.849,20.046,20.941,32.648S715.761,330.599,715.761,345.776z
			 M676.708,345.776c0-11.457-1.415-21.193-4.527-30.357c-3.112-8.879-7.074-16.611-12.734-22.912
			c-5.659-6.3-12.451-10.883-20.375-14.318c-7.924-3.437-16.979-5.155-26.884-5.155h-36.789v145.774h36.789
			c9.903,0,18.96-1.72,26.884-5.156c7.924-3.436,14.716-8.02,20.375-14.318c5.66-6.301,9.622-13.747,12.734-22.912
			S676.708,357.231,676.708,345.776z"/>
		<path fill="#FFFFFF" d="M910.448,345.776v83.626c-5.095,3.724-10.472,7.159-16.13,10.023c-5.66,2.863-11.604,5.154-17.829,6.873
			c-6.227,1.719-13.3,3.15-20.658,4.01c-7.357,0.859-14.998,1.433-23.487,1.433c-14.999,0-28.582-2.864-41.034-8.02
			c-12.45-5.154-23.487-12.314-32.544-21.766c-9.056-9.451-16.413-20.621-21.507-33.51c-5.094-12.887-7.641-27.206-7.641-42.672
			c0-15.465,2.264-29.784,7.356-42.672c5.094-12.889,12.169-24.058,21.509-33.509c9.056-9.451,20.375-16.61,33.393-21.766
			c12.451-4.869,26.601-7.446,42.165-7.732h1.698h0.282c22.073,0,46.128,5.155,72.445,14.893v52.695h-1.132h-3.68h-11.604
			c-3.679,0-5.659-1.719-6.509-5.154c-0.565-2.578-1.414-10.024-2.547-22.34c-14.149-4.867-30.279-7.159-48.391-7.159
			c-10.188,0-18.962,1.719-27.168,5.155s-15.28,8.306-20.94,14.605s-10.188,14.033-13.301,22.911s-4.812,18.901-4.812,30.071
			c0,12.027,1.698,22.91,5.094,32.076c3.396,9.449,7.925,17.184,13.866,23.482c5.943,6.301,13.019,11.17,21.226,14.605
			c8.207,3.437,17.263,5.155,26.884,5.155c8.49,0,15.848-0.858,22.355-2.291c6.227-1.433,12.451-3.724,18.111-6.588v-37.517h-25.469
			c-2.547,0-4.528-0.859-5.943-2.291c-1.415-1.434-1.979-2.864-1.979-4.869v-21.766h67.919V345.776z"/>
		<path fill="#FFFFFF" d="M1113.744,235.716v25.364v13.407v30.074h-1.791h-4.296h-14.682c-4.653,0-7.159-2.535-8.233-6.885
			c-0.358-2.897-1.434-10.508-2.507-23.189H998.81v72.47h87.723v37.685H998.81v73.92h83.426c1.073-12.683,2.147-20.291,2.507-23.189
			c1.074-4.349,3.58-6.885,8.233-6.885h14.682h4.296h1.791v30.074v13.771v25.364H950.474h-27.212v-21.379
			c0-6.16,2.864-9.783,8.951-11.232c0.357,0,1.074-0.362,2.148-0.362s2.863-0.725,5.37-1.087c2.507-0.361,6.444-1.088,10.741-1.813
			V271.589c-4.297-0.725-8.234-1.449-10.741-1.812c-2.507-0.363-4.297-1.088-5.37-1.088c-1.074,0-1.791-0.362-2.148-0.362
			c-6.087-1.449-8.951-5.072-8.951-11.232v-21.379h27.212H1113.744L1113.744,235.716z"/>
	</g>
	<g>
		<path fill="#FFFFFF" d="M999.107,85.203c0-4.884,1.185-9.768,3.699-14.208c2.517-4.439,6.217-8.731,10.952-12.432l5.623,3.553
			c0.444,0.296,0.89,0.592,1.036,1.035c0.148,0.444,0.296,0.74,0.296,1.185c0,0.443-0.146,0.888-0.296,1.332
			c-0.146,0.443-0.443,0.592-0.739,0.888c-0.593,0.74-1.185,1.628-1.925,2.664c-0.739,1.036-1.332,2.071-1.924,3.256
			c-0.592,1.184-1.036,2.516-1.479,3.848s-0.592,2.812-0.592,4.439c0,1.627,0.147,3.404,0.739,5.328
			c0.593,1.924,1.48,3.848,2.813,5.92c0.443,0.74,0.593,1.332,0.593,2.072c0,1.628-0.889,2.664-2.664,3.256l-11.101,4.439
			C1000.736,96.303,999.107,90.827,999.107,85.203z"/>
	</g>
	<g>
		<g>
			<path fill="#FFFFFF" d="M632.017,221.473c0.57-1.729,33.273,2.125,35.198,0c2.298-2.536-1.637-7.067,0-10.755
				c-1.094-1.622-8.334-0.179-14.666-2.933c-0.405-0.177-3.199-2.892-4.889-3.911c-6.174-3.726-5.569-7.768-7.821-17.599
				c-1.22-5.326-2.846-11.237-2.934-15.644c-0.083-4.177,1.423-8.813,0.978-12.711c-0.516-4.521-4.272-9.13-5.866-14.665
				c-1.247-4.336-0.919-9.111-1.954-12.711c-1.735-6.027-5.688-9.85-4.89-14.666c0.218-1.316,1.771-0.59,2.935-0.978
				c2.052-0.684,1.068-0.204,1.955-1.955c0.974-1.924,0.971-11.127,0.978-13.688c0.035-13.133-2.296-36.396-4.889-43.997
				c-0.458-1.344-2.396-4.657-3.91-6.844c-2.002-2.889-3.946-3.243-3.911-5.866c0.07-5.271,6.528-6.471,8.799-11.733
				c1.96-4.539,2.166-13.565,0.979-18.576c-0.231-0.978,0-2.93,0-2.934c-0.274-1.294,0.644-3.762,0-4.889
				c-1.143-1.997-4.264,0.18-4.89-1.955c-3.585,0-7.17,0-10.755,0c-3.064,1.868-9.01,4.799-9.776,11.732
				c-0.74,6.689,5.146,10.993,2.933,16.621c-1.109,2.822,0.019,0.462-1.955,0.979c-6,1.568-10.154,8.733-14.666,13.688
				c-5.037,5.532-7.386,4.15-3.91,11.732c0.725,1.579,1.378,1.097,1.955,4.889c1.741,11.438-2.045,33.736,0,51.819
				c0.324,2.87,1.409,6.021,1.955,8.8c0.499,2.538,1.922,5.936,1.956,7.821c0.034,1.904-1.78,6.445-1.956,9.777
				c-0.229,4.371,0.489,8.995,0,10.755c-2.1,7.553-9.831,8.052-15.644,13.688c-1.568,1.521-2.491,4.883-3.91,6.844
				c-3.059,4.224-6.652,7.105-9.778,11.732c-4.411,6.531-9.354,10.631-14.666,17.599c0,0.979,0,1.956,0,2.934
				c0.881,0.099,14.366,13.312,18.577,14.666c5.951,1.913,20.285,0.775,10.755-5.866c-1.897-1.323-2.243-0.309-3.911-2.934
				c-0.896-1.412-1.045-4.139-1.956-7.821c-0.572-2.32-1.865-5.24-1.954-4.889c-0.482,1.91,2.425-2.379,2.934-2.934
				c1.003-1.096,2.184-1.952,2.933-2.933c1.675-2.193,2.72-4.614,3.911-5.867c8.881-9.335,25.224-16.501,28.354-21.51
				c1.823-2.917,0.275-3.739,1.956-7.821c0.255-0.62,1.461-5.522,2.933-5.866c1.451-0.34,9.773,8.095,10.755,11.732
				c0.68,2.518-1.003,5.46-0.978,8.8c0.032,4.498,3.436,13.864,4.889,19.554c0.616,2.415,0.531,5.271,0.978,6.845
				c0.14,0.489,1.778,0.604,1.955,0.978c0.355,0.749-0.443,2.241,0,2.933c1.433,2.23,3.366,1.963,3.911,3.911
				C632.34,209.502,628.706,214.866,632.017,221.473z"/>
		</g>
	</g>
</g>
</svg>
